# xmcd
#
# Track frame offsets:
#	150
#	9445
#	21470
#	35460
#	47765
#	60415
#	70625
#	82835
#	94732
#	107857
#	120712
#	135187
#	147045
#	158007
#	171000
#	182440
#	195307
#	208602
#	222115
#	236712
#	251920
#
# Disc length: 3550 seconds
#
# Revision: 0
# Processed by: cddbd v1.5.2PL0 Copyright (c) Steve Scherf et al.
# Submitted via: AudioConverter v5.0 Copyright (c) AC Productions Ltd
#
DISCID=110ddc15
DTITLE=Various Artist - Teachin' the Blues
DYEAR=1998
DGENRE=Blues
TTITLE0=Steppin' Out
TTITLE1=All Your Love (I Miss Loving)
TTITLE2=It Hurts Me Too
TTITLE3=Double Trouble
TTITLE4=The Sky Is Crying
TTITLE5=Ain't That Lovin' You Baby
TTITLE6=Five Long Years
TTITLE7=Mean Old Frisco Blues
TTITLE8=County Jail Blues
TTITLE9=Everybody Oughta Make A Change
TTITLE10=Floating Bridge
TTITLE11=I'm A Steady Rollin' Man
TTITLE12=From Four Until Late
TTITLE13=Ramblin' On My Mind
TTITLE14=Cross Road Blues
TTITLE15=I'm So Glad
TTITLE16=Outside Woman Blues
TTITLE17=Nobody Knows You When You're Down and Out
TTITLE18=Motherless Chile Blues
TTITLE19=Motherless Children
TTITLE20=Jesus Is Coming Soon
EXTD=
EXTT0=
EXTT1=
EXTT2=
EXTT3=
EXTT4=
EXTT5=
EXTT6=
EXTT7=
EXTT8=
EXTT9=
EXTT10=
EXTT11=
EXTT12=
EXTT13=
EXTT14=
EXTT15=
EXTT16=
EXTT17=
EXTT18=
EXTT19=
EXTT20=
PLAYORDER=
